<?xml version="1.0" encoding="UTF-8"?>
<svg id="uuid-7fc0b994-a005-48ed-9ae0-d41a24cab5ef" data-name="Calque 1" xmlns="http://www.w3.org/2000/svg" xmlns:xlink="http://www.w3.org/1999/xlink" viewBox="0 0 549.96 205.28">
  <defs>
    <radialGradient id="uuid-1ff54099-89f4-45ee-968a-d3e49c7d21c7" data-name="Dégradé sans nom 11" cx="39.7" cy="42.95" fx="39.7" fy="42.95" r="521.82" gradientUnits="userSpaceOnUse">
      <stop offset="0" stop-color="#d60ead"/>
      <stop offset=".29" stop-color="#ce1ab1"/>
      <stop offset="1" stop-color="#0c1f4d"/>
    </radialGradient>
    <radialGradient id="uuid-8e1fe379-7760-4f66-96fc-f4adcc2cfc45" data-name="Dégradé sans nom 11" cx="39.7" fx="39.7" r="521.82" xlink:href="#uuid-1ff54099-89f4-45ee-968a-d3e49c7d21c7"/>
    <radialGradient id="uuid-1175cbe3-66a8-4b28-93fb-ccaed885b6fb" data-name="Dégradé sans nom 11" cx="39.7" fx="39.7" r="521.82" xlink:href="#uuid-1ff54099-89f4-45ee-968a-d3e49c7d21c7"/>
    <radialGradient id="uuid-20df5f17-b4a5-4210-b8ed-fff557ae6a20" data-name="Dégradé sans nom 11" cx="39.7" fx="39.7" r="521.82" xlink:href="#uuid-1ff54099-89f4-45ee-968a-d3e49c7d21c7"/>
  </defs>
  <g>
    <path d="m161.38,147.47c0,2.15-1,3.22-3.01,3.22h-36.76c-2.01,0-3.01-1.21-3.01-3.63,0-6.99.26-17.48.78-31.46.52-13.98.78-24.47.78-31.46,0-2.01-.31-3.08-.93-3.22-.76.42-5.4,11.11-13.91,32.08-4.98,12.32-9.97,24.61-14.95,36.86-.69,1.59-1.56,2.53-2.6,2.8-.35.07-1.73.1-4.15.1-3.6,0-5.75-.69-6.44-2.08-3.74-7.61-8.65-18.69-14.74-33.23-6.51-15.37-11.39-26.48-14.64-33.33-.14-.35-.45-.73-.93-1.14-.49.62-.73,1.63-.73,3.01,0,6.79.17,16.96.52,30.53.35,13.57.52,23.74.52,30.53,0,2.42-.97,3.63-2.91,3.63H9.59c-1.39,0-2.23-.22-2.54-.67-.31-.45-.47-1.23-.47-2.34,0-7.54.36-18.88,1.09-34,.73-15.12,1.09-26.46,1.09-34,0-8.03-.35-23.08-1.04-45.17-.07-5.75-.38-14.29-.93-25.65l-.1-1.77c-.07-1.38,1.38-2.08,4.36-2.08,3.81,0,9.52-.12,17.13-.36,7.61-.24,13.32-.36,17.13-.36.76,0,1.83,1.45,3.22,4.36l30.32,66.55c2.14,4.5,3.95,6.75,5.4,6.75.76,0,2.39-2.6,4.88-7.79,6.99-14.54,17.34-36.44,31.04-65.72,1.18-2.7,2.46-4.05,3.84-4.05,2.01,0,5.04.1,9.08.31,4.05.21,7.11.31,9.19.31,1.73,0,4.38-.17,7.94-.52,3.56-.35,6.21-.52,7.94-.52,2.08,0,3.12.83,3.12,2.49,0,8.17-.3,20.37-.88,36.6-.59,16.23-.88,28.43-.88,36.6,0,7.54.31,18.86.93,33.95.62,15.09.93,26.37.93,33.85Z" fill="url(#uuid-1ff54099-89f4-45ee-968a-d3e49c7d21c7)" stroke-width="0"/>
    <path d="m279.85,99.61c0,15.78-4.83,28.59-14.48,38.42-9.66,9.83-22.34,14.74-38.05,14.74s-27.76-4.84-37.59-14.54c-9.83-9.69-14.74-22.15-14.74-37.38,0-16.06,4.71-29.09,14.12-39.09,9.41-10,22.15-15,38.21-15s28.31,4.9,38,14.69c9.69,9.79,14.54,22.51,14.54,38.16Zm-34.06,0c0-5.47-1.7-10.29-5.09-14.48-3.39-4.19-7.79-6.28-13.19-6.28s-9.97,2.15-13.5,6.44c-3.32,4.02-4.98,8.79-4.98,14.33s1.66,10.42,4.98,14.43c3.53,4.29,8.03,6.44,13.5,6.44s9.86-2.14,13.39-6.44c3.25-4.01,4.88-8.83,4.88-14.43Z" fill="url(#uuid-8e1fe379-7760-4f66-96fc-f4adcc2cfc45)" stroke-width="0"/>
    <path d="m392.3,99.61c0,15.78-4.83,28.59-14.48,38.42-9.66,9.83-22.34,14.74-38.05,14.74s-27.76-4.84-37.59-14.54c-9.83-9.69-14.74-22.15-14.74-37.38,0-16.06,4.71-29.09,14.12-39.09,9.41-10,22.15-15,38.21-15s28.31,4.9,38,14.69c9.69,9.79,14.54,22.51,14.54,38.16Zm-34.06,0c0-5.47-1.7-10.29-5.09-14.48-3.39-4.19-7.79-6.28-13.19-6.28s-9.97,2.15-13.5,6.44c-3.32,4.02-4.98,8.79-4.98,14.33s1.66,10.42,4.98,14.43c3.53,4.29,8.03,6.44,13.5,6.44s9.86-2.14,13.39-6.44c3.25-4.01,4.88-8.83,4.88-14.43Z" fill="url(#uuid-1175cbe3-66a8-4b28-93fb-ccaed885b6fb)" stroke-width="0"/>
    <path d="m544.51,8.24c0,7.89-.33,19.75-.99,35.56-.66,15.82-.99,27.71-.99,35.67v68.42c0,1.87-1,2.8-3.01,2.8-1.66,0-4.17.07-7.53.21-3.36.14-5.87.21-7.53.21-1.8,0-4.5-.14-8.1-.42-3.6-.28-6.3-.42-8.1-.42-1.25,0-2.74-1.14-4.46-3.43-4.98-6.71-16.2-21.6-33.64-44.65-4.78-6.44-12.04-15.92-21.8-28.45-.28-.42-.8-.83-1.56-1.25-.55.48-.83,1.25-.83,2.28,0,8.03.22,20.07.67,36.13.45,16.06.67,28.1.67,36.13,0,2.42-.93,3.63-2.8,3.63h-35.92c-2.01,0-3.01-1.07-3.01-3.22,0-7.48.36-18.76,1.09-33.85.73-15.09,1.09-26.41,1.09-33.95,0-7.96-.33-19.87-.99-35.72-.66-15.85-.99-27.72-.99-35.61,0-1.52,1.35-2.28,4.05-2.28,4.01,0,8.96-.28,14.85-.83,1.38-.14,4.12-.59,8.2-1.35,3.46-.62,6.19-.93,8.2-.93.83,0,2.11,1.18,3.84,3.53l38.73,53.06c3.46,4.78,8.69,11.77,15.68,20.97,1.73,2.15,3.22,3.22,4.46,3.22.9,0,1.35-2.7,1.35-8.1,0-7.27-.4-18.2-1.19-32.81-.8-14.6-1.19-25.58-1.19-32.91,0-2.56.73-3.84,2.18-3.84,4.15,0,10.42-.17,18.79-.52,8.37-.34,14.64-.52,18.79-.52,1.31,0,1.97,1.07,1.97,3.22Z" fill="url(#uuid-20df5f17-b4a5-4210-b8ed-fff557ae6a20)" stroke-width="0"/>
  </g>
  <g>
    <path d="m186.29,174.36c0,1.41-.79,2.12-2.36,2.12s-2.4-.71-2.4-2.12c0-.63.25-1.15.74-1.57.46-.39,1.01-.59,1.66-.59s1.2.2,1.66.6c.46.4.7.92.7,1.55Zm-.12,4.67c0,.88-.05,2.22-.16,4.01-.11,1.79-.16,3.13-.16,4.03,0,.84.02,2.09.05,3.77.03,1.67.05,2.92.05,3.75,0,.24-.1.36-.31.36h-3.36c-.24,0-.36-.24-.36-.71,0-.79.02-1.98.06-3.58s.06-2.79.06-3.59c0-.9-.07-2.24-.2-4.03-.13-1.79-.2-3.14-.2-4.03,0-.2.12-.29.36-.29.21,0,.53.03.96.09.43.06.76.09.97.09s.54-.03.97-.09c.43-.06.75-.09.97-.09.2,0,.29.11.29.33Z" fill="#652676" stroke-width="0"/>
    <path d="m197.65,189.67c0,1.71-.68,3.08-2.05,4.12-1.24.94-2.75,1.41-4.53,1.41-.69,0-1.08-.02-1.17-.05-.2-.09-.29-.37-.29-.84,0-.25-.03-.63-.09-1.14-.06-.51-.09-.88-.09-1.12,0-.15.1-.25.31-.29.15-.03.36-.03.64,0,.36.04.53.05.52.05,2.17,0,3.26-.67,3.26-2,0-.63-.48-1.21-1.43-1.74-1.55-.85-2.44-1.37-2.67-1.57-.95-.82-1.43-1.88-1.43-3.21,0-1.72.65-3.07,1.95-4.03,1.17-.86,2.66-1.29,4.45-1.29.16,0,.28.08.35.22.07.15.22.61.43,1.4.21.78.32,1.25.32,1.41,0,.13-.11.21-.33.24-.74.1-1.48.2-2.22.29-.89.24-1.33.72-1.33,1.45,0,.52.46,1.04,1.4,1.57,1.38.77,2.25,1.33,2.62,1.67.94.9,1.41,2.04,1.41,3.45Z" fill="#652676" stroke-width="0"/>
    <path d="m218.55,191.81c0,.25-.02.6-.07,1.03-.06.54-.09.89-.1,1.05-.01.21-.03.33-.05.38-.05.08-.16.16-.33.24-.94.45-2.42.67-4.45.67-2.69,0-4.03-1.22-4.03-3.65,0-.98.02-2.44.07-4.4.05-1.96.07-3.43.07-4.4,0-.47-.24-.72-.71-.76-.43,0-.84,0-1.26-.02-.24-.06-.36-.53-.36-1.41,0-.33.02-.68.07-1.05.03-.28.22-.44.55-.5.29,0,.57,0,.84-.02.53-.02.79-.26.79-.71s-.01-1.16-.04-2.1c-.03-.94-.04-1.65-.04-2.12,0-.84.16-1.26.48-1.26.1,0,1.18.18,3.24.54.26.03.4.16.4.38,0,.51-.04,1.26-.11,2.28-.08,1.01-.11,1.77-.11,2.28,0,.33.16.5.47.5h4.14c.2,0,.29.07.29.21s-.02.36-.06.66-.06.53-.06.68c0,.17,0,.44.02.79s.02.62.02.79c0,.22-.16.33-.48.33-.46,0-1.16-.03-2.09-.09-.93-.06-1.63-.09-2.09-.09-.09,0-.16.33-.21.98-.06.82-.09,1.96-.09,3.43v2.57c0,.99.09,1.68.28,2.07.28.6.84.9,1.71.9.36,0,.88-.08,1.57-.23s1.2-.23,1.53-.23c.14,0,.21.1.21.31Z" fill="#652676" stroke-width="0"/>
    <path d="m236.07,194.37c0,.43-.12.64-.36.64-.36,0-.9,0-1.62-.02-.72-.01-1.26-.02-1.62-.02-.29,0-.43-.19-.43-.57,0-.55.02-1.38.06-2.5.04-1.11.06-1.95.06-2.52,0-.53-.02-1.33-.06-2.4s-.06-1.88-.06-2.42c0-2.07-.98-3.1-2.93-3.1-.63,0-1.46.32-2.48.95-1.09.68-1.64,1.3-1.64,1.86v10.24c0,.33-.12.5-.36.5-.36,0-.89,0-1.6-.02-.71-.01-1.25-.02-1.6-.02-.26,0-.4-.16-.4-.47v-8.33c0-1.36-.08-4.24-.22-8.65-.02-1.37-.12-3.39-.29-6.07-.02-.14-.04-.23-.04-.28,0-.2.07-.32.21-.36.2-.07.84-.1,1.95-.1.24,0,.6-.04,1.09-.13.48-.09.83-.13,1.05-.13.15,0,.22.11.22.33,0,1.08-.04,2.7-.13,4.87-.09,2.17-.13,3.79-.13,4.87,0,.26.05.4.14.41.59-.49,1.34-1.09,2.28-1.79,1.13-.7,2.32-1.05,3.57-1.05,2.16,0,3.65.64,4.46,1.93.59.94.88,2.44.88,4.48,0,.36,0,.91-.03,1.65-.02.74-.03,1.29-.03,1.65,0,.74.01,1.83.03,3.29.02,1.46.04,2.55.04,3.27Z" fill="#652676" stroke-width="0"/>
    <path d="m253.98,185.72c0,.85-.37,1.42-1.1,1.71-.49.18-4.05.52-10.67,1.02.15,1.01.71,1.87,1.67,2.58.92.68,1.91,1.02,2.96,1.02,1.82,0,3.48-.59,5-1.76.18-.15.37-.3.55-.45.09,0,.15.01.18.04.03.02.24.42.65,1.2.4.78.6,1.19.6,1.25,0,.07-.09.2-.28.4-1.69,1.79-3.86,2.69-6.5,2.69s-4.79-.79-6.38-2.39c-1.58-1.59-2.38-3.71-2.38-6.37,0-2.37.76-4.43,2.27-6.19,1.6-1.83,3.56-2.74,5.88-2.74,2.16,0,3.96.79,5.41,2.38,1.41,1.54,2.12,3.41,2.12,5.62Zm-4.1-1.05c0-.95-.38-1.8-1.13-2.53-.75-.74-1.6-1.1-2.54-1.1-1.06,0-2,.42-2.82,1.28s-1.23,1.8-1.23,2.86c0,.24.21.36.62.36,1.7,0,3.73-.17,6.1-.52.67-.09,1-.21,1-.34Z" fill="#652676" stroke-width="0"/>
    <path d="m280.4,194.63c0,.25-.12.38-.34.38-.38,0-.95,0-1.7-.02-.75-.01-1.32-.02-1.7-.02-.21,0-.31-.17-.31-.5,0-.56.02-1.42.05-2.57.03-1.15.05-2.01.05-2.58,0-.46,0-1.15-.02-2.06-.01-.91-.02-1.6-.02-2.06,0-1.31-.19-2.23-.57-2.77-.46-.64-1.31-.97-2.55-.97-.57,0-1.37.32-2.4.97-1.08.68-1.62,1.28-1.62,1.81v10.34c0,.29-.11.43-.33.43-.37,0-.92,0-1.65-.02-.74-.01-1.29-.02-1.66-.02-.24,0-.36-.13-.36-.4,0-.91.01-2.27.04-4.08.03-1.82.04-3.18.04-4.1,0-2.45-.26-4.71-.78-6.77-.04-.1-.05-.18-.05-.22,0-.11.07-.2.22-.24.08-.01.74-.12,1.97-.32s1.88-.3,1.94-.3c.07,0,.11.09.14.28.06.71.19,1.43.4,2.15.6-.47,1.38-1.06,2.36-1.76,1.21-.74,2.37-1.1,3.5-1.1,2.16,0,3.64.63,4.43,1.88.59.92.88,2.41.88,4.46,0,.36,0,.9-.03,1.64-.02.74-.03,1.29-.03,1.66,0,.77.01,1.92.03,3.45.02,1.53.03,2.68.03,3.45Z" fill="#652676" stroke-width="0"/>
    <path d="m298.27,185.72c0,.85-.37,1.42-1.1,1.71-.49.18-4.05.52-10.67,1.02.15,1.01.71,1.87,1.67,2.58.92.68,1.91,1.02,2.96,1.02,1.82,0,3.48-.59,5-1.76.18-.15.37-.3.55-.45.09,0,.15.01.18.04.03.02.24.42.65,1.2s.6,1.19.6,1.25c0,.07-.09.2-.28.4-1.69,1.79-3.86,2.69-6.5,2.69s-4.79-.79-6.38-2.39-2.38-3.71-2.38-6.37c0-2.37.76-4.43,2.28-6.19,1.6-1.83,3.56-2.74,5.88-2.74,2.16,0,3.96.79,5.41,2.38,1.41,1.54,2.12,3.41,2.12,5.62Zm-4.1-1.05c0-.95-.38-1.8-1.13-2.53s-1.6-1.1-2.54-1.1c-1.06,0-2,.42-2.82,1.28s-1.23,1.8-1.23,2.86c0,.24.21.36.62.36,1.7,0,3.73-.17,6.1-.52.67-.09,1-.21,1-.34Z" fill="#652676" stroke-width="0"/>
    <path d="m323.82,182.62c0,2.16-.12,3.52-.36,4.07-.32.76-1.17,2.27-2.55,4.53-1.49,2.45-2.4,3.71-2.71,3.79-.09.02-.55.04-1.38.04-.56,0-.89-.01-.98-.04-.36-.09-1.72-2.07-4.1-5.93-.66,1.08-1.32,2.17-1.98,3.26-1.08,1.7-1.77,2.59-2.07,2.67-.09.02-.47.04-1.14.04s-1.06-.01-1.15-.04c-.36-.08-1.26-1.33-2.71-3.76-1.37-2.29-2.2-3.81-2.48-4.57-.26-.69-.4-2.04-.4-4.07,0-1.69.06-2.84.17-3.46.06-.25.2-.38.43-.38.34,0,.86.01,1.55.03.69.02,1.21.03,1.55.03.22,0,.33.18.33.54,0,.25-.01.63-.03,1.15-.02.51-.03.89-.03,1.15,0,2,.06,3.41.17,4.24.1.72,1.01,2.24,2.71,4.55.21.28.33.41.36.41s.14-.13.31-.38c1.49-2.17,2.34-3.65,2.55-4.45.14-.55.21-1.79.21-3.71,0-.39-.02-.97-.07-1.74-.05-.77-.07-1.34-.07-1.72,0-.25.1-.38.31-.38h3.29c.18,0,.28.15.28.45,0,.37-.02.92-.05,1.66-.03.74-.05,1.29-.05,1.66,0,2.03.03,3.21.1,3.52.07.32.61,1.22,1.62,2.71,1.01,1.49,1.59,2.23,1.74,2.23.03,0,.14-.14.31-.41,1.46-2.22,2.25-3.7,2.36-4.45.1-.62.16-1.67.16-3.15,0-.44-.03-1.07-.1-1.89-.07-.82-.1-1.41-.1-1.77,0-.17.12-.26.34-.26.34,0,.86-.01,1.53-.03.68-.02,1.19-.04,1.53-.04.25,0,.41.12.47.34.09.45.14,1.63.14,3.53Z" fill="#652676" stroke-width="0"/>
    <path d="m349.09,172.54c-.23.38-.55.95-.95,1.72-.13.36-.35.86-.67,1.52-.07.1-.16.15-.28.15.01,0-.54-.2-1.66-.61-1.12-.41-2.04-.61-2.77-.61-2.11,0-3.17.93-3.17,2.79,0,1.03.74,1.94,2.22,2.71,2.49,1.3,3.87,2.04,4.14,2.24,1.48,1.18,2.22,2.78,2.22,4.79,0,2.57-1.02,4.6-3.05,6.08-1.83,1.33-4.07,2-6.74,2-1.24,0-1.91-.14-2-.41-.05-.44-.15-1.07-.31-1.91-.09-.34-.24-.86-.43-1.55-.03-.1-.05-.2-.05-.29,0-.16.09-.24.26-.24.28,0,.7.03,1.27.09.57.06,1,.09,1.28.09,3.56,0,5.34-1.15,5.34-3.45,0-1.13-.72-2.1-2.15-2.93-2.62-1.49-3.96-2.27-4.02-2.33-1.45-1.17-2.17-2.75-2.17-4.72,0-2.14.7-3.85,2.1-5.14,1.37-1.24,3.14-1.86,5.31-1.86.92,0,1.98.15,3.17.45,1.3.33,2.28.74,2.93,1.21.06.05.11.12.17.22Z" fill="#652676" stroke-width="0"/>
    <path d="m367.69,179.34c0,.84-.03,2.11-.1,3.8-.07,1.7-.1,2.97-.1,3.82s.03,2.09.08,3.77.08,2.93.08,3.77c0,.23-.11.38-.33.45-.09.02-1.26.03-3.5.03-.14,0-.22-.43-.25-1.29-.03-.86-.09-1.29-.2-1.29-.06,0-.14.05-.26.16-1.92,1.67-3.81,2.5-5.69,2.5-2.54,0-4.22-.92-5.03-2.76-.51-1.14-.76-3.18-.76-6.14,0-2.67.21-4.92.64-6.77.1-.45.29-.67.57-.67.33,0,.83,0,1.5.02.67.01,1.17.02,1.5.02.23,0,.34.13.34.38,0,.45-.08,1.2-.22,2.24-.16,1.12-.25,1.9-.26,2.36-.03.69-.05,1.45-.05,2.28,0,2.01.14,3.36.43,4.05.49,1.24,1.59,1.86,3.29,1.86.72,0,1.58-.36,2.57-1.07,1.05-.75,1.59-1.46,1.62-2.15.06-.86.09-3.9.09-9.1,0-.56.24-.84.71-.84h2.84c.33,0,.5.2.5.6Z" fill="#652676" stroke-width="0"/>
    <path d="m386.39,194.63c0,.25-.12.38-.34.38-.38,0-.95,0-1.7-.02-.75-.01-1.32-.02-1.7-.02-.21,0-.31-.17-.31-.5,0-.56.02-1.42.05-2.57.04-1.15.05-2.01.05-2.58,0-.46,0-1.15-.02-2.06-.01-.91-.02-1.6-.02-2.06,0-1.31-.19-2.23-.57-2.77-.46-.64-1.31-.97-2.55-.97-.57,0-1.37.32-2.4.97-1.08.68-1.62,1.28-1.62,1.81v10.34c0,.29-.11.43-.33.43-.37,0-.92,0-1.65-.02-.74-.01-1.29-.02-1.65-.02-.24,0-.36-.13-.36-.4,0-.91.01-2.27.04-4.08s.04-3.18.04-4.1c0-2.45-.26-4.71-.78-6.77-.03-.1-.05-.18-.05-.22,0-.11.07-.2.22-.24.08-.01.74-.12,1.97-.32s1.88-.3,1.94-.3c.07,0,.12.09.14.28.06.71.19,1.43.4,2.15.6-.47,1.38-1.06,2.36-1.76,1.21-.74,2.37-1.1,3.5-1.1,2.16,0,3.64.63,4.43,1.88.59.92.88,2.41.88,4.46,0,.36,0,.9-.03,1.64-.02.74-.03,1.29-.03,1.66,0,.77.01,1.92.03,3.45.02,1.53.03,2.68.03,3.45Z" fill="#652676" stroke-width="0"/>
  </g>
</svg>